# xmcd CD database file generated by Grip 3.3.1
# 
# Track frame offsets:
#       150
#       20300
#       37461
#       52648
#       64164
#       81977
#       97871
#       113688
#       131988
#       151376
#       165920
#       177252
#       192268
#       204438
#       224404
#       237350
# 
# Disc length: 3406 seconds
# 
# Revision: 2
# Processed by: cddbd v1.5.2PL0 Copyright (c) Steve Scherf et al.
# Submitted via: Grip 3.3.1
# 
DISCID=d60d4c10
DTITLE=Germans - That's Allright
DYEAR=2005
DGENRE=Blues
TTITLE0=Mean Old Frisco
TTITLE1=Sweet Home Chicago
TTITLE2=Brady And Duncan
TTITLE3=Don't Waste My Time
TTITLE4=I Just Wanna Make Love To You
TTITLE5=Thinking Of You
TTITLE6=Rollin' And Tumblin
TTITLE7=Come On Down
TTITLE8=When The Sun Is Shining
TTITLE9=Corinna
TTITLE10=Crazy About You
TTITLE11=Ain't Nobody's Business
TTITLE12=Mama, If I Go Away...
TTITLE13=Don't Think Twice
TTITLE14=That's Allright, Mama
TTITLE15=Chickin' Mary
EXTD=
EXTT0=
EXTT1=
EXTT2=
EXTT3=
EXTT4=
EXTT5=
EXTT6=
EXTT7=
EXTT8=
EXTT9=
EXTT10=
EXTT11=
EXTT12=
EXTT13=
EXTT14=
EXTT15=
PLAYORDER=
